<svg width="226" height="70" xmlns="http://www.w3.org/2000/svg"><g fill-rule="nonzero" fill="none"><path d="M.001 50.64v-4.641h3.37c2.051 0 3.19-.63 3.19-4.399V17.16c0-2.689-.721-3.512-3.851-3.512H0V9h39.722v16.58h-4.46c-.9-8.54-1.62-11.932-9.682-11.932h-10.6v13.07h3.189c3.619 0 5.239-1.891 5.239-6.979v-.82h4.46v20.979h-4.46v-1.5c0-5.09-1.62-7.038-5.239-7.038H14.98V46h12.04c5.54 0 7.7-3.59 8.24-12.939h4.46v17.58L.001 50.64zM42.647 50.271V45.63h3.85c1.68 0 2.83-.63 2.83-2.771V15.981c0-1.88-.79-2.7-3.189-2.7h-3.489v-4.65h22.02v4.648h-3.37c-2.64 0-3.55.632-3.55 2.83v29.58h9.811c6.199 0 7.699-3.58 8.25-13.318h4.449V50.27H42.647v.001zM92.107 50.271V45.63h3.85c1.391 0 2.59-.5 2.59-2.141V15.41c0-1.632-1.199-2.132-2.59-2.132h-3.85V8.631h23.59c9.028 0 14.199 4.341 14.199 11.431 0 7.729-5.41 11.37-13.479 11.37h-9.439v12.061c0 1.64 1.5 2.14 2.881 2.14h3.85v4.641H92.107v-.003zm14.869-23.49h5.471c5.661 0 8.67-1.818 8.67-6.648 0-4.84-2.41-6.852-8.67-6.852h-5.471v13.5zM123.156 50.271h18.78V45.63h-4.69c-1.148 0-1.93-.26-1.93-1.13 0-.569.121-.95.239-1.319l1.979-6.29h13.66l1.989 6.29c.119.369.238.939.238 1.51 0 .62-.479.939-1.858.939h-4.761v4.641h40.729V45.63h-3.49c-2.04 0-2.95-1.069-2.95-3.08V16.29c0-2.38 1.87-3.012 3.79-3.012h2.65V8.631h-21.298v4.648h3.371c2.35 0 3.067 1.25 3.067 2.83v27.262c0 1.63-.96 2.26-3.431 2.26h-1.5c-3.188 0-5.229-.439-6.319-3.399L149.397 8.631h-8.432l-11.489 33.601c-1.021 2.96-3.13 3.399-6.319 3.399l-.001 4.64zm26.301-18.02h-10.17l4.82-15.142h.107l5.243 15.142zM219.377 8.631h3.49v15.83h-4.33c-1.439-6.852-5.229-11.75-12.391-11.75-5.602 0-7.892 1.511-7.892 5.66 0 9.42 26.841 2.39 26.841 19.908 0 9.99-7.461 13.25-15.891 13.25-4.51 0-9.021-2.01-12.51-4.96l-1.32 3.7h-4.1V33.25h4.459c.84 8.42 5.771 12.938 14.318 12.938 5.29 0 7.82-2.58 7.82-5.59 0-10.74-26.84-2.641-26.84-20.601 0-8.859 7.64-12.63 14.93-12.63 4.57 0 8.42 2.198 11.431 4.398l1.985-3.134z" fill="#212020"/><path d="M34.507 69.411h7.46l.29-2.802h-.47c-.2 1.021-.55 2.16-2.061 2.16h-2.011c-.26 0-.409-.141-.409-.358V64.52h1.819c1.062 0 1.181.79 1.271 1.41h.449v-3.41h-.46c-.029.682-.279 1.352-1.271 1.352h-1.811V60.31h2.431c1.26 0 1.46.76 1.688 1.88h.44l.02-2.5-.039-.04c-.131 0-1.29.03-1.851.03h-5.49v.369c.7.101 1.19.271 1.19 1.021v6.99c0 .71-.471.852-1.19.96v.391h.005zM43.567 69.411h7.46l.29-2.802h-.471c-.199 1.021-.551 2.16-2.061 2.16h-2.01c-.261 0-.41-.141-.41-.358v-7.36c0-.771.56-.89 1.189-1v-.369h-3.989v.369c.699.101 1.188.271 1.188 1.021v6.99c0 .71-.46.852-1.188.96l.002.389zM58.907 64.381v-4.109h.779c1.359 0 2.211.642 2.211 2.021 0 1.33-.66 2.09-2.051 2.09l-.939-.002zm-2.79 5.03h4.21v-.391c-.92-.08-1.42-.271-1.42-.96v-3.05h1.109c1.859 0 3.521-.89 3.521-2.8 0-1.609-1.28-2.529-3.14-2.529h-4.28v.369c.689.101 1.189.271 1.189 1.021v6.99c0 .71-.471.852-1.189.96v.39zM64.056 69.411h7.46l.29-2.802h-.471c-.199 1.021-.55 2.16-2.06 2.16h-2.011c-.261 0-.409-.141-.409-.358V64.52h1.818c1.062 0 1.182.79 1.271 1.41h.46v-3.41h-.471c-.029.682-.279 1.352-1.271 1.352h-1.81V60.31h2.43c1.26 0 1.46.76 1.689 1.88h.439l.021-2.5-.04-.04c-.12 0-1.29.03-1.852.03H64.05v.369c.699.101 1.189.271 1.189 1.021v6.99c0 .71-.47.852-1.189.96v.391h.006zM75.917 64.01v-3.689h1.38c1.08 0 1.75.71 1.75 1.91 0 1.512-1.159 1.779-2.109 1.779h-1.021zm-2.8 5.401h3.99v-.391c-.78-.108-1.19-.278-1.19-.99v-3.439h1.3c.642.011 1.04.181 1.23 1.051l.79 3.771h2.45v-.392c-.5-.061-.86-.13-.99-.761l-.58-2.21c-.2-.92-.95-1.59-1.88-1.72v-.051c1.41-.14 2.34-1.021 2.34-2.229 0-1.55-1.17-2.369-3.24-2.369h-4.22v.369c.7.101 1.189.271 1.189 1.021v6.99c0 .71-.46.852-1.189.96v.39zM91.491 58.691l2.721-1.46-.859-1.13-2.15 2.271.288.319zm-9.314 10.72h3.99v-.391c-.77-.108-1.189-.278-1.189-.99v-6.979c0-.771.561-.89 1.189-1v-.369h-3.99v.369c.7.101 1.2.271 1.2 1.021v6.99c0 .71-.47.852-1.2.96v.389zM91.306 68.851c-1.96 0-2.75-1.28-2.75-4.24 0-2.908.699-4.408 2.569-4.408 1.84 0 2.721 1.488 2.721 4.43 0 3.088-.879 4.218-2.54 4.218zm-.029.68c2.56 0 4.27-2.01 4.27-5.108 0-3.01-1.648-4.859-4.409-4.859-2.649 0-4.279 2.021-4.279 5.01-.002 3.166 1.678 4.957 4.418 4.957zM100.136 68.781c-.199 0-.37-.028-.37-.278v-8.229h1.109c2.37 0 3.11 2.319 3.11 4.222 0 2.43-.891 4.398-3.301 4.289l-.548-.004zm-3.179.63h3.83c2.9 0 4.9-2.132 4.9-4.99 0-2.979-1.841-4.739-4.94-4.739h-3.79v.369c.7.101 1.19.271 1.19 1.021v6.99c0 .71-.472.852-1.19.96v.389zM107.136 69.411h3.979v-.391c-.771-.108-1.19-.278-1.19-.99v-6.979c0-.771.57-.89 1.19-1v-.369h-3.979v.369c.689.101 1.189.271 1.189 1.021v6.99c0 .71-.47.852-1.189.96v.389zM116.787 69.531c.89-.028 1.938-.21 2.351-.148l.119-2.739h-.449c-.198 1.83-1.069 2.21-2.181 2.21-2.391 0-3.131-1.91-3.131-4.431 0-2.29 1.102-4.239 2.932-4.239 1.409 0 2 .479 2.262 1.97h.43l.021-2.278a11.154 11.154 0 0 0-2.681-.312c-2.7 0-4.649 1.892-4.649 5.239 0 2.511 1.061 3.771 2.529 4.37.697.278 1.566.358 2.447.358zM125.317 68.851c-1.949 0-2.74-1.28-2.74-4.24 0-2.908.689-4.408 2.57-4.408 1.829 0 2.711 1.488 2.711 4.43 0 3.088-.882 4.218-2.541 4.218zm-.03.68c2.561 0 4.271-2.01 4.271-5.108 0-3.01-1.641-4.859-4.399-4.859-2.649 0-4.279 2.021-4.279 5.01-.003 3.166 1.667 4.957 4.407 4.957zM139.457 69.541c1.431 0 2.21-.222 2.8-.38v-2.87c0-.66.312-.75.92-.852v-.39h-3.75v.391c.819.08 1.25.262 1.25.899v2.511c-.101.01-.479.05-.71.05-1.229 0-2.09-.431-2.648-1.108-.789-.79-1.102-2.012-1.102-3.38 0-2.102 1.063-4.222 3.091-4.222 1.409 0 2.13.392 2.438 1.96h.431l.011-2.278c-.869-.2-1.729-.312-2.699-.312-3.261 0-4.949 2.409-4.949 5.12-.003 3.071 1.717 4.861 4.917 4.861zM144.627 69.411h7.46l.29-2.802h-.471c-.199 1.021-.549 2.16-2.061 2.16h-2.011c-.261 0-.41-.141-.41-.358v-7.36c0-.771.562-.89 1.19-1v-.369h-3.99v.369c.699.101 1.189.271 1.189 1.021v6.99c0 .71-.472.852-1.189.96l.003.389zM158.217 68.851c-1.96 0-2.75-1.28-2.75-4.24 0-2.908.699-4.408 2.57-4.408 1.84 0 2.72 1.488 2.72 4.43 0 3.088-.88 4.218-2.54 4.218zm-.031.68c2.561 0 4.271-2.01 4.271-5.108 0-3.01-1.649-4.859-4.399-4.859-2.649 0-4.29 2.021-4.29 5.01-.002 3.166 1.68 4.957 4.418 4.957zM166.677 63.861v-3.59h1.103c1 0 2.06.239 2.06 1.84 0 1.07-.83 1.75-2.091 1.75h-1.072zm.24 4.93c-.13 0-.24-.04-.24-.222v-4.13h.801c1.729 0 2.479.899 2.479 2.222 0 1.17-.7 2.13-2.211 2.13h-.829zm-3.05.62h4.279c1.699 0 3.51-.91 3.51-2.83 0-1.189-1.021-2.102-2.58-2.34v-.08c1.229-.24 2.381-.932 2.381-2.222 0-1.83-1.771-2.26-3.16-2.26h-4.43v.369c.699.101 1.188.271 1.188 1.021v6.99c0 .71-.471.852-1.188.96v.392zM175.287 65.041l1.188-4.13h.052l1.39 4.13h-2.63zm-2.72 4.37h2.891v-.391c-.979-.12-1.08-.351-1.08-.568 0-.262.101-.62.15-.75l.56-1.979h3.051l.84 2.439c.029.08.069.229.069.38 0 .238-.479.391-1.029.479v.392h3.592v-.392c-.382-.05-.711-.21-.853-.63l-3.081-8.721h-1.579l.04.221-2.631 8.38c-.159.5-.479.7-.938.75l-.002.39zM181.987 69.411h7.461l.289-2.802h-.471c-.199 1.021-.54 2.16-2.061 2.16h-2c-.271 0-.42-.141-.42-.358v-7.36c0-.771.561-.89 1.188-1v-.369h-3.989v.369c.699.101 1.199.271 1.199 1.021v6.99c0 .71-.471.852-1.199.96l.003.389z" fill="#333"/><path fill="#016CA2" d="M187.656.001v5.24h-21.939z"/></g></svg>